<svg width="186" height="36" viewBox="0 0 186 36" fill="none" xmlns="http://www.w3.org/2000/svg">
<path d="M39.2152 25.0336C39.3684 20.6284 38.5628 16.2011 37.0044 12.8867C36.8127 12.479 36.61 12.087 36.3965 11.7104C37.3979 10.5144 38.9137 9.45029 41.119 9.78093C42.4954 9.98752 43.6564 11.1267 44.5687 13.1665C45.9195 16.1862 46.4468 20.6492 46.0159 25.4116C45.6674 29.2637 44.7081 32.931 43.3168 35.84H48.4762C49.6302 32.8553 50.4086 29.4412 50.7348 25.8382C51.2365 20.2923 50.5658 14.9684 48.8943 11.2315C46.8827 6.73446 43.9381 5.41189 41.8223 5.09459C39.8053 4.79211 37.9099 5.07235 36.1885 5.92688C35.1738 6.43051 34.2343 7.12936 33.3812 8.01305C33.3367 7.97598 33.2917 7.93891 33.2468 7.90234C31.4819 6.47054 29.414 5.66246 27.1005 5.50134C25.1008 5.36197 23.2316 5.81469 21.5452 6.84764C20.8726 7.25983 20.235 7.76198 19.637 8.35012C17.7594 6.66873 15.5314 5.77861 13.0898 5.77861C11.4821 5.77861 9.94897 6.20563 8.532 7.02853C6.82886 2.41286 5.00266 0.165075 4.86526 0L1.22323 3.03066C1.2351 3.04499 2.43214 4.52918 3.72012 7.71552C4.10018 8.65605 4.43429 9.6119 4.72786 10.5702C4.09475 11.4337 3.50908 12.4078 2.97678 13.4872C1.11302 17.2681 0 22.1398 0 26.5187C0 28.855 0.3173 30.8008 0.943497 32.3023C1.34482 33.2651 1.8781 34.042 2.52901 34.6119C3.35735 35.3369 4.3646 35.7204 5.44302 35.7204C6.85407 35.7204 8.11289 35.1931 9.08357 34.1952C10.8658 32.3631 11.6264 29.0042 11.4772 23.6245C11.3477 18.9495 10.7531 15.0184 9.96924 11.787C10.8574 11.0239 11.8963 10.5183 13.0889 10.5183C14.5029 10.5183 15.7281 11.0739 16.8352 12.216C16.8431 12.2239 16.851 12.2323 16.8589 12.2407C14.9472 15.9707 14.3462 20.1451 14.1579 22.4665C13.805 26.8173 14.3398 30.6609 15.6253 33.012C16.9612 35.4555 18.825 35.8203 19.8169 35.8203C21.0179 35.8203 23.2281 35.3018 24.5378 31.8278C25.209 30.0481 25.5639 27.7093 25.5639 25.0647C25.5639 20.6591 24.5957 16.1852 22.9074 12.7903C22.7966 12.5679 22.683 12.3505 22.5668 12.1379C23.6349 10.9261 25.0123 10.1066 26.7703 10.2297C28.2896 10.3355 29.6042 10.9187 30.7064 11.9724C29.6621 14.1361 28.5837 17.3541 28.2031 21.8225C27.8146 26.3808 28.3331 30.565 29.5899 33.015C30.8418 35.4555 32.6132 35.8203 33.5571 35.8203C34.3474 35.8203 35.5148 35.5652 36.5878 34.3504C37.1552 33.7084 37.6435 32.8464 38.0394 31.7883C38.7081 30.0006 39.1252 27.6021 39.2147 25.0345L39.2152 25.0336ZM5.68718 30.8912C5.65011 30.9293 5.62589 30.9545 5.57943 30.9683C5.32638 30.6323 4.75455 29.3878 4.73874 26.6319C4.72292 23.8637 5.27399 20.6882 6.25011 17.92C6.25851 17.8963 6.26691 17.8721 6.27581 17.8474C6.56444 20.0314 6.69393 22.0568 6.74089 23.755C6.89608 29.3561 5.89031 30.6822 5.68718 30.8912ZM20.792 26.3255C20.6531 28.8352 20.15 30.1939 19.8119 30.7924C19.4536 30.1608 18.9134 28.6795 18.8086 25.892C18.7088 23.2335 19.0666 20.3092 19.7828 17.7762C20.581 20.4436 20.9472 23.5212 20.792 26.3255ZM34.4206 25.9291C34.2619 27.9649 33.8947 29.3937 33.5542 30.2621C33.1884 29.2197 32.585 28.2757 32.6201 24.697C32.6438 22.2742 33.1331 19.6118 33.6955 17.4218C34.3771 19.9464 34.64 23.106 34.4201 25.9291H34.4206Z" fill="#003A37"/>
<path d="M78.6739 9.07837V33.7946H73.9555V23.0845H62.4215V33.7946H57.703V9.07837H62.4215V19.1895H73.9555V9.07837H78.6739ZM98.4315 30.1615C98.2447 30.2 97.7727 30.2371 97.5478 30.2371C96.7991 30.2371 96.5 29.9381 96.5 29.0386V22.8226C96.5 18.5158 93.6913 15.8949 88.6358 15.8949C83.8792 15.8949 80.9963 18.6359 80.9963 21.9685C80.9963 22.059 80.9988 22.1465 81.0023 22.232H85.1148V22.2305C85.1148 20.77 86.3133 19.4143 88.486 19.4143C90.845 19.4143 92.044 20.7255 92.044 22.7099V23.5714H91.7435C86.7053 23.5714 81.4609 24.9196 81.4609 29.1508C81.4609 32.0722 82.9723 34.0195 86.8293 34.0195C89.6667 34.0195 92.0193 31.9941 92.2679 31.1737C92.5684 33.0829 93.841 33.9814 96.1259 33.9814C97.3615 33.9814 98.3727 33.7195 98.3727 33.7195L98.432 30.1615H98.4315ZM92.044 27.5776C92.044 29.0766 90.6601 30.5371 88.6506 30.5371C86.8911 30.5371 85.917 29.8625 85.917 28.6635C85.917 26.904 89.5476 26.0796 91.7435 26.0796H92.044V27.5771V27.5776ZM116.909 22.9348V33.7946H112.34V23.5714C112.34 21.287 111.142 19.789 108.895 19.789C105.974 19.789 104.663 22.4104 104.663 24.6196V33.7946H100.095V16.1188L103.615 15.969C103.952 17.2046 104.177 19.0397 104.177 19.826H104.289C105.187 17.6914 106.985 15.8939 110.206 15.8939C114.55 15.8939 116.909 18.8524 116.909 22.9343V22.9348ZM136.382 7.35596V33.7946L132.75 33.9444C132.488 32.7834 132.263 30.7986 132.301 30.2371H132.188C131.215 32.4093 129.23 34.0195 126.084 34.0195C121.253 34.0195 118.07 30.2747 118.07 24.9943C118.07 19.3021 121.627 15.8944 126.309 15.8944C128.968 15.8944 130.765 16.9802 131.814 18.4782V7.35596H136.382ZM131.814 25.4811V24.4323C131.814 22.2601 130.241 19.7138 127.095 19.7138C124.436 19.7138 122.676 21.7733 122.676 24.9943C122.676 28.2152 124.436 30.1996 127.245 30.1996C130.054 30.1996 131.814 27.7279 131.814 25.4811ZM167.127 23.0094V33.7946H162.559V23.6084C162.559 21.3241 161.398 19.8636 159.151 19.8636C156.38 19.8636 155.144 22.4475 155.144 24.6196V33.7946H150.575V23.6084C150.575 21.3241 149.414 19.8636 147.168 19.8636C144.396 19.8636 143.198 22.4475 143.198 24.6196V33.7946H138.629V16.1188L142.149 15.969C142.486 17.13 142.711 19.0397 142.711 19.826H142.749C143.61 17.6539 145.37 15.9314 148.478 15.9314C151.587 15.9314 153.759 17.5041 154.657 19.9758C155.481 17.729 157.279 15.9314 160.462 15.9314C164.731 15.9314 167.128 18.8899 167.128 23.0094H167.127ZM182.847 28.3645L185.168 30.8732C183.82 32.6337 181.236 34.019 177.679 34.019C171.799 34.019 168.242 30.3117 168.242 24.9938C168.242 19.6758 171.762 15.8939 177.192 15.8939C182.622 15.8939 185.318 19.4514 185.318 24.2074C185.318 25.3308 185.131 26.0425 185.131 26.0425H172.848C173.26 28.664 175.057 30.4615 178.166 30.4615C180.712 30.4615 182.098 29.263 182.847 28.3645ZM172.848 23.4587H181.011C180.974 21.1367 179.513 19.4519 177.191 19.4519C174.87 19.4519 173.259 20.9875 172.847 23.4587H172.848Z" fill="#003A37"/>
</svg>
